<?xml version="1.0" standalone="no"?><svg xmlns:xlink="http://www.w3.org/1999/xlink" xmlns="http://www.w3.org/2000/svg" viewBox="0 0 1000 562.5023053373169" preserveAspectRatio="xMaxYMax slice"><g transform="scale(0.9221349267824868)"><rect x="0" y="0" width="1084.4444444444443" height="610" fill="#ffffff"/><circle cx="33.89" cy="33.89" r="6.78" fill="#bed6fc"/><circle cx="101.67" cy="33.89" r="6.78" fill="#a3c4fb"/><circle cx="169.45" cy="33.89" r="6.78" fill="#414756"/><circle cx="237.22" cy="33.89" r="6.78" fill="#e7e8ea"/><circle cx="305" cy="33.89" r="6.78" fill="#a7c7fb"/><circle cx="372.78" cy="33.89" r="6.78" fill="#8cb6fa"/><circle cx="440.55999999999995" cy="33.89" r="6.78" fill="#f2f7fe"/><circle cx="508.34" cy="33.89" r="6.78" fill="#78a9f9"/><circle cx="576.11" cy="33.89" r="6.78" fill="#2d3445"/><circle cx="643.89" cy="33.89" r="6.78" fill="#bfd6fc"/><circle cx="711.67" cy="33.89" r="6.78" fill="#f0f1f2"/><circle cx="779.4499999999999" cy="33.89" r="6.78" fill="#7babf9"/><circle cx="847.22" cy="33.89" r="6.78" fill="#c0d7fc"/><circle cx="915" cy="33.89" r="6.78" fill="#525765"/><circle cx="982.78" cy="33.89" r="6.78" fill="#6d727e"/><circle cx="1050.56" cy="33.89" r="6.78" fill="#787d87"/><circle cx="33.89" cy="101.67" r="6.78" fill="#d3e3fd"/><circle cx="101.67" cy="101.67" r="6.78" fill="#353c4c"/><circle cx="169.45" cy="101.67" r="6.78" fill="#e6effe"/><circle cx="237.22" cy="101.67" r="6.78" fill="#aeb1b7"/><circle cx="305" cy="101.67" r="6.78" fill="#e0e1e3"/><circle cx="372.78" cy="101.67" r="6.78" fill="#8bb5fa"/><circle cx="440.55999999999995" cy="101.67" r="6.78" fill="#727782"/><circle cx="508.34" cy="101.67" r="6.78" fill="#3d83f6"/><circle cx="576.11" cy="101.67" r="6.78" fill="#cadefd"/><circle cx="643.89" cy="101.67" r="6.78" fill="#888c95"/><circle cx="711.67" cy="101.67" r="6.78" fill="#6d727e"/><circle cx="779.4499999999999" cy="101.67" r="6.78" fill="#7cacf9"/><circle cx="847.22" cy="101.67" r="6.78" fill="#999ca4"/><circle cx="915" cy="101.67" r="6.78" fill="#92b9fa"/><circle cx="982.78" cy="101.67" r="6.78" fill="#b9bbc1"/><circle cx="1050.56" cy="101.67" r="6.78" fill="#6a6f7b"/><circle cx="33.89" cy="169.45" r="6.78" fill="#f5f5f6"/><circle cx="101.67" cy="169.45" r="6.78" fill="#a2a5ad"/><circle cx="169.45" cy="169.45" r="6.78" fill="#a7c7fb"/><circle cx="237.22" cy="169.45" r="6.78" fill="#262d3e"/><circle cx="305" cy="169.45" r="6.78" fill="#5291f7"/><circle cx="372.78" cy="169.45" r="6.78" fill="#a0c3fb"/><circle cx="440.55999999999995" cy="169.45" r="6.78" fill="#aeb0b7"/><circle cx="508.34" cy="169.45" r="6.78" fill="#686d79"/><circle cx="576.11" cy="169.45" r="6.78" fill="#e0e1e4"/><circle cx="643.89" cy="169.45" r="6.78" fill="#7a7e89"/><circle cx="711.67" cy="169.45" r="6.78" fill="#303647"/><circle cx="779.4499999999999" cy="169.45" r="6.78" fill="#4d8df7"/><circle cx="847.22" cy="169.45" r="6.78" fill="#303748"/><circle cx="915" cy="169.45" r="6.78" fill="#1d2436"/><circle cx="982.78" cy="169.45" r="6.78" fill="#aaadb4"/><circle cx="1050.56" cy="169.45" r="6.78" fill="#c0d7fc"/><circle cx="33.89" cy="237.22" r="6.78" fill="#3c83f6"/><circle cx="101.67" cy="237.22" r="6.78" fill="#8f929b"/><circle cx="169.45" cy="237.22" r="6.78" fill="#eaf1fe"/><circle cx="237.22" cy="237.22" r="6.78" fill="#b6d0fc"/><circle cx="305" cy="237.22" r="6.78" fill="#d3e3fd"/><circle cx="372.78" cy="237.22" r="6.78" fill="#9fa2aa"/><circle cx="440.55999999999995" cy="237.22" r="6.78" fill="#2c3344"/><circle cx="508.34" cy="237.22" r="6.78" fill="#659df8"/><circle cx="576.11" cy="237.22" r="6.78" fill="#adb0b6"/><circle cx="643.89" cy="237.22" r="6.78" fill="#699ff8"/><circle cx="711.67" cy="237.22" r="6.78" fill="#888c95"/><circle cx="779.4499999999999" cy="237.22" r="6.78" fill="#3d83f6"/><circle cx="847.22" cy="237.22" r="6.78" fill="#dae7fd"/><circle cx="915" cy="237.22" r="6.78" fill="#acafb5"/><circle cx="982.78" cy="237.22" r="6.78" fill="#404655"/><circle cx="1050.56" cy="237.22" r="6.78" fill="#272e3f"/><circle cx="33.89" cy="305" r="6.78" fill="#91b9fa"/><circle cx="101.67" cy="305" r="6.78" fill="#c0d7fc"/><circle cx="169.45" cy="305" r="6.78" fill="#4e5462"/><circle cx="237.22" cy="305" r="6.78" fill="#e8f0fe"/><circle cx="305" cy="305" r="6.78" fill="#609af8"/><circle cx="372.78" cy="305" r="6.78" fill="#5492f7"/><circle cx="440.55999999999995" cy="305" r="6.78" fill="#639bf8"/><circle cx="508.34" cy="305" r="6.78" fill="#747984"/><circle cx="576.11" cy="305" r="6.78" fill="#fcfcfd"/><circle cx="643.89" cy="305" r="6.78" fill="#b9bbc0"/><circle cx="711.67" cy="305" r="6.78" fill="#a2a5ac"/><circle cx="779.4499999999999" cy="305" r="6.78" fill="#3b4251"/><circle cx="847.22" cy="305" r="6.78" fill="#699ff8"/><circle cx="915" cy="305" r="6.78" fill="#caddfd"/><circle cx="982.78" cy="305" r="6.78" fill="#161e30"/><circle cx="1050.56" cy="305" r="6.78" fill="#999da5"/><circle cx="33.89" cy="372.78" r="6.78" fill="#b4b7bd"/><circle cx="101.67" cy="372.78" r="6.78" fill="#7a7e89"/><circle cx="169.45" cy="372.78" r="6.78" fill="#404655"/><circle cx="237.22" cy="372.78" r="6.78" fill="#e8e9eb"/><circle cx="305" cy="372.78" r="6.78" fill="#eff0f1"/><circle cx="372.78" cy="372.78" r="6.78" fill="#9699a2"/><circle cx="440.55999999999995" cy="372.78" r="6.78" fill="#619af8"/><circle cx="508.34" cy="372.78" r="6.78" fill="#e1ecfe"/><circle cx="576.11" cy="372.78" r="6.78" fill="#fefefe"/><circle cx="643.89" cy="372.78" r="6.78" fill="#d7d9dc"/><circle cx="711.67" cy="372.78" r="6.78" fill="#72a5f9"/><circle cx="779.4499999999999" cy="372.78" r="6.78" fill="#a8abb2"/><circle cx="847.22" cy="372.78" r="6.78" fill="#93bafa"/><circle cx="915" cy="372.78" r="6.78" fill="#dadbde"/><circle cx="982.78" cy="372.78" r="6.78" fill="#8cb6fa"/><circle cx="1050.56" cy="372.78" r="6.78" fill="#5b96f7"/><circle cx="33.89" cy="440.55999999999995" r="6.78" fill="#c1d7fc"/><circle cx="101.67" cy="440.55999999999995" r="6.78" fill="#92b9fa"/><circle cx="169.45" cy="440.55999999999995" r="6.78" fill="#545a68"/><circle cx="237.22" cy="440.55999999999995" r="6.78" fill="#cfe1fd"/><circle cx="305" cy="440.55999999999995" r="6.78" fill="#abc9fb"/><circle cx="372.78" cy="440.55999999999995" r="6.78" fill="#85b1f9"/><circle cx="440.55999999999995" cy="440.55999999999995" r="6.78" fill="#a7c7fb"/><circle cx="508.34" cy="440.55999999999995" r="6.78" fill="#33394a"/><circle cx="576.11" cy="440.55999999999995" r="6.78" fill="#b4cffc"/><circle cx="643.89" cy="440.55999999999995" r="6.78" fill="#c9ddfd"/><circle cx="711.67" cy="440.55999999999995" r="6.78" fill="#b3b6bc"/><circle cx="779.4499999999999" cy="440.55999999999995" r="6.78" fill="#3f4554"/><circle cx="847.22" cy="440.55999999999995" r="6.78" fill="#d7e5fd"/><circle cx="915" cy="440.55999999999995" r="6.78" fill="#383e4e"/><circle cx="982.78" cy="440.55999999999995" r="6.78" fill="#a1a4ab"/><circle cx="1050.56" cy="440.55999999999995" r="6.78" fill="#7d818c"/><circle cx="33.89" cy="508.34" r="6.78" fill="#90b8fa"/><circle cx="101.67" cy="508.34" r="6.78" fill="#a7aab1"/><circle cx="169.45" cy="508.34" r="6.78" fill="#5e98f8"/><circle cx="237.22" cy="508.34" r="6.78" fill="#9598a1"/><circle cx="305" cy="508.34" r="6.78" fill="#1d2436"/><circle cx="372.78" cy="508.34" r="6.78" fill="#d8e6fd"/><circle cx="440.55999999999995" cy="508.34" r="6.78" fill="#93bafa"/><circle cx="508.34" cy="508.34" r="6.78" fill="#8a8e97"/><circle cx="576.11" cy="508.34" r="6.78" fill="#ecedee"/><circle cx="643.89" cy="508.34" r="6.78" fill="#7babf9"/><circle cx="711.67" cy="508.34" r="6.78" fill="#a4c5fb"/><circle cx="779.4499999999999" cy="508.34" r="6.78" fill="#e5e6e8"/><circle cx="847.22" cy="508.34" r="6.78" fill="#7c808a"/><circle cx="915" cy="508.34" r="6.78" fill="#4a8cf7"/><circle cx="982.78" cy="508.34" r="6.78" fill="#f5f8ff"/><circle cx="1050.56" cy="508.34" r="6.78" fill="#9c9fa7"/><circle cx="33.89" cy="576.11" r="6.78" fill="#69a0f8"/><circle cx="101.67" cy="576.11" r="6.78" fill="#f6f6f7"/><circle cx="169.45" cy="576.11" r="6.78" fill="#8fb8fa"/><circle cx="237.22" cy="576.11" r="6.78" fill="#444a59"/><circle cx="305" cy="576.11" r="6.78" fill="#a4a7ae"/><circle cx="372.78" cy="576.11" r="6.78" fill="#9abffa"/><circle cx="440.55999999999995" cy="576.11" r="6.78" fill="#bdc0c5"/><circle cx="508.34" cy="576.11" r="6.78" fill="#4186f6"/><circle cx="576.11" cy="576.11" r="6.78" fill="#85b1f9"/><circle cx="643.89" cy="576.11" r="6.78" fill="#9bbffa"/><circle cx="711.67" cy="576.11" r="6.78" fill="#c6c8cd"/><circle cx="779.4499999999999" cy="576.11" r="6.78" fill="#434958"/><circle cx="847.22" cy="576.11" r="6.78" fill="#aeccfb"/><circle cx="915" cy="576.11" r="6.78" fill="#639bf8"/><circle cx="982.78" cy="576.11" r="6.78" fill="#9498a0"/><circle cx="1050.56" cy="576.11" r="6.78" fill="#9598a1"/></g></svg>