<?xml version="1.0" standalone="no"?><svg xmlns:xlink="http://www.w3.org/1999/xlink" xmlns="http://www.w3.org/2000/svg" viewBox="0 0 1000 562.5023053373169" preserveAspectRatio="xMaxYMax slice"><g transform="scale(0.9221349267824868)"><rect x="0" y="0" width="1084.4444444444443" height="610" fill="#ffffff"/><rect x="0" y="0" width="67.77777777777777" height="67.77777777777777" fill="#ffffff"/><rect x="0" y="0" width="33.89" height="33.89" fill="#3b82f6"/><polygon points="33.89,0 33.89,33.89 0,33.89" fill="#3b82f6"/><rect x="33.89" y="0" width="33.89" height="33.89" fill="#0f172a"/><polygon points="33.89,0 67.78,33.89 33.89,33.89" fill="#3b82f6"/><rect x="0" y="33.89" width="33.89" height="33.89" fill="#0f172a"/><polygon points="0,33.89 33.89,33.89 33.89,67.78" fill="#3b82f6"/><rect x="33.89" y="33.89" width="33.89" height="33.89" fill="#3b82f6"/><polygon points="33.89,33.89 67.78,33.89 33.89,67.78" fill="#3b82f6"/><rect x="67.77777777777777" y="0" width="67.77777777777777" height="67.77777777777777" fill="#ffffff"/><rect x="67.78" y="0" width="33.89" height="33.89" fill="#0f172a"/><path d="M 67.78 33.89 A 33.89 33.89 0 0 1  101.67 0 L 101.67 33.89" fill="#0f172a"/><rect x="101.67" y="0" width="33.89" height="33.89" fill="#0f172a"/><path d="M 101.67 0 A 33.89 33.89 0 0 1 135.56 33.89 L 101.67 33.89" fill="#0f172a"/><rect x="67.78" y="33.89" width="33.89" height="33.89" fill="#3b82f6"/><path d="M 67.78 33.89 A 33.89 33.89 0 0 0 101.67 67.78 L 101.67 33.89" fill="#0f172a"/><rect x="101.67" y="33.89" width="33.89" height="33.89" fill="#0f172a"/><path d="M 101.67 67.78 A 33.89 33.89 0 0 0 135.56 33.89 L 101.67 33.89" fill="#3b82f6"/><rect x="135.55555555555554" y="0" width="67.77777777777777" height="67.77777777777777" fill="#ffffff"/><rect x="135.56" y="0" width="33.89" height="33.89" fill="#0f172a"/><path d="M 135.56 33.89 A 33.89 33.89 0 0 1  169.45 0 L 169.45 33.89" fill="#3b82f6"/><rect x="169.44" y="0" width="33.89" height="33.89" fill="#3b82f6"/><path d="M 169.44 0 A 33.89 33.89 0 0 1 203.32999999999998 33.89 L 169.44 33.89" fill="#0f172a"/><rect x="135.56" y="33.89" width="33.89" height="33.89" fill="#3b82f6"/><path d="M 135.56 33.89 A 33.89 33.89 0 0 0 169.45 67.78 L 169.45 33.89" fill="#0f172a"/><rect x="169.44" y="33.89" width="33.89" height="33.89" fill="#3b82f6"/><path d="M 169.44 67.78 A 33.89 33.89 0 0 0 203.32999999999998 33.89 L 169.44 33.89" fill="#0f172a"/><rect x="203.33" y="0" width="67.78" height="67.78" fill="#0f172a"/><rect x="203.33" y="0" width="67.78" height="67.78" fill="#3b82f6"/><rect x="271.1111111111111" y="0" width="67.77777777777777" height="67.77777777777777" fill="#ffffff"/><rect x="271.11" y="0" width="33.89" height="33.89" fill="#0f172a"/><polygon points="305,0 305,33.89 271.11,33.89" fill="#0f172a"/><rect x="305" y="0" width="33.89" height="33.89" fill="#0f172a"/><polygon points="305,0 338.89,33.89 305,33.89" fill="#0f172a"/><rect x="271.11" y="33.89" width="33.89" height="33.89" fill="#0f172a"/><polygon points="271.11,33.89 305,33.89 305,67.78" fill="#0f172a"/><rect x="305" y="33.89" width="33.89" height="33.89" fill="#0f172a"/><polygon points="305,33.89 338.89,33.89 305,67.78" fill="#0f172a"/><rect x="338.89" y="0" width="67.78" height="67.78" fill="#3b82f6"/><rect x="338.89" y="0" width="67.78" height="67.78" fill="#3b82f6"/><rect x="406.66666666666663" y="0" width="67.77777777777777" height="67.77777777777777" fill="#ffffff"/><rect x="406.67" y="0" width="33.89" height="33.89" fill="#3b82f6"/><polygon points="440.56,0 440.56,33.89 406.67,33.89" fill="#0f172a"/><rect x="440.56" y="0" width="33.89" height="33.89" fill="#0f172a"/><polygon points="440.56,0 474.45,0 440.56,33.89" fill="#0f172a"/><rect x="406.67" y="33.89" width="33.89" height="33.89" fill="#3b82f6"/><polygon points="406.67,33.89 440.56,33.89 440.56,67.78" fill="#0f172a"/><rect x="440.56" y="33.89" width="33.89" height="33.89" fill="#0f172a"/><polygon points="440.56,33.89 474.45,67.78 440.56,67.78" fill="#0f172a"/><rect x="474.4444444444444" y="0" width="67.77777777777777" height="67.77777777777777" fill="#ffffff"/><rect x="474.44" y="0" width="33.89" height="33.89" fill="#0f172a"/><path d="M 474.44 0 A 33.89 33.89 0 0 0 508.33 33.89 L 508.33 0" fill="#3b82f6"/><rect x="508.33" y="0" width="33.89" height="33.89" fill="#0f172a"/><path d="M 508.33 33.89 A 33.89 33.89 0 0 0 542.22 0 L 508.33 0" fill="#0f172a"/><rect x="474.44" y="33.89" width="33.89" height="33.89" fill="#3b82f6"/><path d="M 474.44 67.78 A 33.89 33.89 0 0 1  508.33 33.89 L 508.33 67.78" fill="#0f172a"/><rect x="508.33" y="33.89" width="33.89" height="33.89" fill="#0f172a"/><path d="M 508.33 33.89 A 33.89 33.89 0 0 1 542.22 67.78 L 508.33 67.78" fill="#3b82f6"/><rect x="542.22" y="0" width="67.78" height="67.78" fill="#0f172a"/><polygon points="542.22,0 610,0 610,67.78" fill="#3b82f6"/><rect x="610" y="0" width="67.77777777777777" height="67.77777777777777" fill="#ffffff"/><rect x="610" y="0" width="33.89" height="33.89" fill="#3b82f6"/><polygon points="643.89,0 643.89,33.89 610,33.89" fill="#0f172a"/><rect x="643.89" y="0" width="33.89" height="33.89" fill="#0f172a"/><polygon points="643.89,0 677.78,33.89 643.89,33.89" fill="#0f172a"/><rect x="610" y="33.89" width="33.89" height="33.89" fill="#0f172a"/><polygon points="610,33.89 643.89,33.89 610,67.78" fill="#3b82f6"/><rect x="643.89" y="33.89" width="33.89" height="33.89" fill="#0f172a"/><polygon points="643.89,33.89 677.78,33.89 677.78,67.78" fill="#0f172a"/><rect x="677.7777777777777" y="0" width="67.77777777777777" height="67.77777777777777" fill="#ffffff"/><rect x="677.78" y="0" width="33.89" height="33.89" fill="#3b82f6"/><polygon points="711.67,0 711.67,33.89 677.78,33.89" fill="#3b82f6"/><rect x="711.67" y="0" width="33.89" height="33.89" fill="#0f172a"/><polygon points="711.67,0 745.56,0 711.67,33.89" fill="#0f172a"/><rect x="677.78" y="33.89" width="33.89" height="33.89" fill="#3b82f6"/><polygon points="677.78,33.89 711.67,33.89 711.67,67.78" fill="#0f172a"/><rect x="711.67" y="33.89" width="33.89" height="33.89" fill="#0f172a"/><polygon points="711.67,33.89 745.56,67.78 711.67,67.78" fill="#3b82f6"/><rect x="745.56" y="0" width="67.78" height="67.78" fill="#3b82f6"/><polygon points="745.56,0 813.3399999999999,0 745.56,67.78" fill="#0f172a"/><rect x="813.3333333333333" y="0" width="67.77777777777777" height="67.77777777777777" fill="#ffffff"/><rect x="813.33" y="0" width="33.89" height="33.89" fill="#0f172a"/><path d="M 813.33 0 A 33.89 33.89 0 0 0 847.22 33.89 L 847.22 0" fill="#0f172a"/><rect x="847.22" y="0" width="33.89" height="33.89" fill="#3b82f6"/><path d="M 847.22 33.89 A 33.89 33.89 0 0 0 881.11 0 L 847.22 0" fill="#0f172a"/><rect x="813.33" y="33.89" width="33.89" height="33.89" fill="#0f172a"/><path d="M 813.33 67.78 A 33.89 33.89 0 0 1  847.22 33.89 L 847.22 67.78" fill="#3b82f6"/><rect x="847.22" y="33.89" width="33.89" height="33.89" fill="#0f172a"/><path d="M 847.22 33.89 A 33.89 33.89 0 0 1 881.11 67.78 L 847.22 67.78" fill="#0f172a"/><rect x="881.1111111111111" y="0" width="67.77777777777777" height="67.77777777777777" fill="#ffffff"/><rect x="881.11" y="0" width="33.89" height="33.89" fill="#0f172a"/><path d="M 881.11 0 A 33.89 33.89 0 0 0 915 33.89 L 915 0" fill="#0f172a"/><rect x="915" y="0" width="33.89" height="33.89" fill="#0f172a"/><path d="M 915 33.89 A 33.89 33.89 0 0 0 948.89 0 L 915 0" fill="#0f172a"/><rect x="881.11" y="33.89" width="33.89" height="33.89" fill="#3b82f6"/><path d="M 881.11 67.78 A 33.89 33.89 0 0 1  915 33.89 L 915 67.78" fill="#0f172a"/><rect x="915" y="33.89" width="33.89" height="33.89" fill="#0f172a"/><path d="M 915 33.89 A 33.89 33.89 0 0 1 948.89 67.78 L 915 67.78" fill="#3b82f6"/><rect x="948.89" y="0" width="67.78" height="67.78" fill="#0f172a"/><rect x="948.89" y="0" width="67.78" height="67.78" fill="#3b82f6"/><rect x="1016.67" y="0" width="67.78" height="67.78" fill="#0f172a"/><rect x="1016.67" y="0" width="67.78" height="67.78" fill="#0f172a"/><rect x="0" y="67.77777777777777" width="67.77777777777777" height="67.77777777777777" fill="#ffffff"/><rect x="0" y="67.78" width="33.89" height="33.89" fill="#3b82f6"/><path d="M 0 67.78 A 33.89 33.89 0 0 1 33.89 101.67 L 0 101.67" fill="#0f172a"/><rect x="33.89" y="67.78" width="33.89" height="33.89" fill="#3b82f6"/><path d="M 33.89 101.67 A 33.89 33.89 0 0 1  67.78 67.78 L 67.78 101.67" fill="#3b82f6"/><rect x="0" y="101.67" width="33.89" height="33.89" fill="#3b82f6"/><path d="M 0 135.56 A 33.89 33.89 0 0 0 33.89 101.67 L 0 101.67" fill="#3b82f6"/><rect x="33.89" y="101.67" width="33.89" height="33.89" fill="#0f172a"/><path d="M 33.89 101.67 A 33.89 33.89 0 0 0 67.78 135.56 L 67.78 101.67" fill="#3b82f6"/><rect x="67.77777777777777" y="67.77777777777777" width="67.77777777777777" height="67.77777777777777" fill="#ffffff"/><rect x="67.78" y="67.78" width="33.89" height="33.89" fill="#3b82f6"/><path d="M 67.78 101.67 A 33.89 33.89 0 0 1 101.67 67.78 L 101.67 76.2525 A 25.4175 25.4175 0 0 0 76.2525 101.67" fill="#0f172a"/><rect x="101.67" y="67.78" width="33.89" height="33.89" fill="#3b82f6"/><path d="M 101.67 67.78 A 33.89 33.89 0 0 1 135.56 101.67 L 127.0875 101.67 A 25.4175 25.4175 0 0 0 101.67 76.2525" fill="#3b82f6"/><rect x="67.78" y="101.67" width="33.89" height="33.89" fill="#3b82f6"/><path d="M 67.78 101.67 A 33.89 33.89 0 0 0 101.67 135.56 L 101.67 127.0875 A 25.4175 25.4175 0 0 1 76.2525 101.67" fill="#0f172a"/><rect x="101.67" y="101.67" width="33.89" height="33.89" fill="#0f172a"/><path d="M 101.67 135.56 A 33.89 33.89 0 0 0 135.56 101.67 L 127.0875 101.67 A 25.4175 25.4175 0 0 1 101.67 127.0875" fill="#0f172a"/><rect x="135.55555555555554" y="67.77777777777777" width="67.77777777777777" height="67.77777777777777" fill="#ffffff"/><rect x="135.56" y="67.78" width="33.89" height="33.89" fill="#0f172a"/><path d="M 135.56 101.67 A 33.89 33.89 0 0 1  169.45 67.78 L 169.45 101.67" fill="#3b82f6"/><rect x="169.44" y="67.78" width="33.89" height="33.89" fill="#3b82f6"/><path d="M 169.44 67.78 A 33.89 33.89 0 0 1 203.32999999999998 101.67 L 169.44 101.67" fill="#0f172a"/><rect x="135.56" y="101.67" width="33.89" height="33.89" fill="#3b82f6"/><path d="M 135.56 101.67 A 33.89 33.89 0 0 0 169.45 135.56 L 169.45 101.67" fill="#3b82f6"/><rect x="169.44" y="101.67" width="33.89" height="33.89" fill="#0f172a"/><path d="M 169.44 135.56 A 33.89 33.89 0 0 0 203.32999999999998 101.67 L 169.44 101.67" fill="#3b82f6"/><rect x="203.33333333333331" y="67.77777777777777" width="67.77777777777777" height="67.77777777777777" fill="#ffffff"/><rect x="203.33" y="67.78" width="33.89" height="33.89" fill="#3b82f6"/><path d="M 203.33 67.78 A 33.89 33.89 0 0 0 237.22000000000003 101.67 L 237.22000000000003 67.78" fill="#3b82f6"/><rect x="237.22" y="67.78" width="33.89" height="33.89" fill="#0f172a"/><path d="M 237.22 101.67 A 33.89 33.89 0 0 0 271.11 67.78 L 237.22 67.78" fill="#0f172a"/><rect x="203.33" y="101.67" width="33.89" height="33.89" fill="#3b82f6"/><path d="M 203.33 135.56 A 33.89 33.89 0 0 1  237.22000000000003 101.67 L 237.22000000000003 135.56" fill="#0f172a"/><rect x="237.22" y="101.67" width="33.89" height="33.89" fill="#3b82f6"/><path d="M 237.22 101.67 A 33.89 33.89 0 0 1 271.11 135.56 L 237.22 135.56" fill="#3b82f6"/><rect x="271.11" y="67.78" width="67.78" height="67.78" fill="#0f172a"/><path d="M 271.11 135.56 A 67.78 67.78 0 0 1  338.89 67.78 L 271.11 135.56 A 67.78 67.78 0 0 0 338.89 67.78" fill="#3b82f6"/><rect x="338.88888888888886" y="67.77777777777777" width="67.77777777777777" height="67.77777777777777" fill="#ffffff"/><rect x="338.89" y="67.78" width="33.89" height="33.89" fill="#3b82f6"/><path d="M 338.89 101.67 A 33.89 33.89 0 0 1  372.78 67.78 L 372.78 101.67" fill="#3b82f6"/><rect x="372.78" y="67.78" width="33.89" height="33.89" fill="#3b82f6"/><path d="M 372.78 67.78 A 33.89 33.89 0 0 1 406.66999999999996 101.67 L 372.78 101.67" fill="#3b82f6"/><rect x="338.89" y="101.67" width="33.89" height="33.89" fill="#3b82f6"/><path d="M 338.89 101.67 A 33.89 33.89 0 0 0 372.78 135.56 L 372.78 101.67" fill="#3b82f6"/><rect x="372.78" y="101.67" width="33.89" height="33.89" fill="#3b82f6"/><path d="M 372.78 135.56 A 33.89 33.89 0 0 0 406.66999999999996 101.67 L 372.78 101.67" fill="#0f172a"/><rect x="406.66666666666663" y="67.77777777777777" width="67.77777777777777" height="67.77777777777777" fill="#ffffff"/><rect x="406.67" y="67.78" width="33.89" height="33.89" fill="#3b82f6"/><path d="M 406.67 101.67 A 33.89 33.89 0 0 1 440.56 67.78 L 440.56 76.2525 A 25.4175 25.4175 0 0 0 415.14250000000004 101.67" fill="#3b82f6"/><rect x="440.56" y="67.78" width="33.89" height="33.89" fill="#0f172a"/><path d="M 440.56 67.78 A 33.89 33.89 0 0 1 474.45 101.67 L 465.9775 101.67 A 25.4175 25.4175 0 0 0 440.56 76.2525" fill="#0f172a"/><rect x="406.67" y="101.67" width="33.89" height="33.89" fill="#0f172a"/><path d="M 406.67 101.67 A 33.89 33.89 0 0 0 440.56 135.56 L 440.56 127.0875 A 25.4175 25.4175 0 0 1 415.14250000000004 101.67" fill="#0f172a"/><rect x="440.56" y="101.67" width="33.89" height="33.89" fill="#3b82f6"/><path d="M 440.56 135.56 A 33.89 33.89 0 0 0 474.45 101.67 L 465.9775 101.67 A 25.4175 25.4175 0 0 1 440.56 127.0875" fill="#0f172a"/><rect x="474.44" y="67.78" width="67.78" height="67.78" fill="#3b82f6"/><rect x="474.44" y="67.78" width="67.78" height="67.78" fill="#3b82f6"/><rect x="542.22" y="67.78" width="67.78" height="67.78" fill="#3b82f6"/><polygon points="610,67.78 610,135.56 542.22,135.56" fill="#0f172a"/><rect x="610" y="67.78" width="67.78" height="67.78" fill="#3b82f6"/><polygon points="610,67.78 677.78,67.78 677.78,135.56" fill="#3b82f6"/><rect x="677.7777777777777" y="67.77777777777777" width="67.77777777777777" height="67.77777777777777" fill="#ffffff"/><rect x="677.78" y="67.78" width="33.89" height="33.89" fill="#3b82f6"/><polygon points="711.67,67.78 711.67,101.67 677.78,101.67" fill="#3b82f6"/><rect x="711.67" y="67.78" width="33.89" height="33.89" fill="#3b82f6"/><polygon points="711.67,67.78 745.56,67.78 711.67,101.67" fill="#3b82f6"/><rect x="677.78" y="101.67" width="33.89" height="33.89" fill="#3b82f6"/><polygon points="677.78,101.67 711.67,101.67 711.67,135.56" fill="#0f172a"/><rect x="711.67" y="101.67" width="33.89" height="33.89" fill="#3b82f6"/><polygon points="711.67,101.67 745.56,135.56 711.67,135.56" fill="#0f172a"/><rect x="745.5555555555554" y="67.77777777777777" width="67.77777777777777" height="67.77777777777777" fill="#ffffff"/><rect x="745.56" y="67.78" width="33.89" height="33.89" fill="#0f172a"/><path d="M 745.56 67.78 A 33.89 33.89 0 0 0 779.4499999999999 101.67 L 779.4499999999999 67.78" fill="#3b82f6"/><rect x="779.44" y="67.78" width="33.89" height="33.89" fill="#0f172a"/><path d="M 779.44 101.67 A 33.89 33.89 0 0 0 813.33 67.78 L 779.44 67.78" fill="#3b82f6"/><rect x="745.56" y="101.67" width="33.89" height="33.89" fill="#0f172a"/><path d="M 745.56 135.56 A 33.89 33.89 0 0 1  779.4499999999999 101.67 L 779.4499999999999 135.56" fill="#3b82f6"/><rect x="779.44" y="101.67" width="33.89" height="33.89" fill="#3b82f6"/><path d="M 779.44 101.67 A 33.89 33.89 0 0 1 813.33 135.56 L 779.44 135.56" fill="#3b82f6"/><rect x="813.3333333333333" y="67.77777777777777" width="67.77777777777777" height="67.77777777777777" fill="#ffffff"/><rect x="813.33" y="67.78" width="33.89" height="33.89" fill="#0f172a"/><path d="M 813.33 101.67 A 33.89 33.89 0 0 1  847.22 67.78 L 847.22 101.67" fill="#0f172a"/><rect x="847.22" y="67.78" width="33.89" height="33.89" fill="#0f172a"/><path d="M 847.22 67.78 A 33.89 33.89 0 0 1 881.11 101.67 L 847.22 101.67" fill="#0f172a"/><rect x="813.33" y="101.67" width="33.89" height="33.89" fill="#3b82f6"/><path d="M 813.33 101.67 A 33.89 33.89 0 0 0 847.22 135.56 L 847.22 101.67" fill="#0f172a"/><rect x="847.22" y="101.67" width="33.89" height="33.89" fill="#0f172a"/><path d="M 847.22 135.56 A 33.89 33.89 0 0 0 881.11 101.67 L 847.22 101.67" fill="#3b82f6"/><rect x="881.1111111111111" y="67.77777777777777" width="67.77777777777777" height="67.77777777777777" fill="#ffffff"/><rect x="881.11" y="67.78" width="33.89" height="33.89" fill="#3b82f6"/><path d="M 881.11 101.67 A 33.89 33.89 0 0 1 915 67.78 L 915 76.2525 A 25.4175 25.4175 0 0 0 889.5825 101.67" fill="#3b82f6"/><rect x="915" y="67.78" width="33.89" height="33.89" fill="#3b82f6"/><path d="M 915 67.78 A 33.89 33.89 0 0 1 948.89 101.67 L 940.4175 101.67 A 25.4175 25.4175 0 0 0 915 76.2525" fill="#0f172a"/><rect x="881.11" y="101.67" width="33.89" height="33.89" fill="#3b82f6"/><path d="M 881.11 101.67 A 33.89 33.89 0 0 0 915 135.56 L 915 127.0875 A 25.4175 25.4175 0 0 1 889.5825 101.67" fill="#3b82f6"/><rect x="915" y="101.67" width="33.89" height="33.89" fill="#0f172a"/><path d="M 915 135.56 A 33.89 33.89 0 0 0 948.89 101.67 L 940.4175 101.67 A 25.4175 25.4175 0 0 1 915 127.0875" fill="#3b82f6"/><rect x="948.8888888888888" y="67.77777777777777" width="67.77777777777777" height="67.77777777777777" fill="#ffffff"/><rect x="948.89" y="67.78" width="33.89" height="33.89" fill="#3b82f6"/><polygon points="982.78,67.78 982.78,101.67 948.89,101.67" fill="#3b82f6"/><rect x="982.78" y="67.78" width="33.89" height="33.89" fill="#0f172a"/><polygon points="982.78,67.78 1016.67,101.67 982.78,101.67" fill="#0f172a"/><rect x="948.89" y="101.67" width="33.89" height="33.89" fill="#0f172a"/><polygon points="948.89,101.67 982.78,101.67 948.89,135.56" fill="#0f172a"/><rect x="982.78" y="101.67" width="33.89" height="33.89" fill="#0f172a"/><polygon points="982.78,101.67 1016.67,101.67 1016.67,135.56" fill="#0f172a"/><rect x="1016.67" y="67.78" width="67.78" height="67.78" fill="#3b82f6"/><path d="M 1016.67 67.78 A 67.78 67.78 0 0 0 1084.45 135.56 L 1084.45 67.78" fill="#0f172a"/><rect x="0" y="135.55555555555554" width="67.77777777777777" height="67.77777777777777" fill="#ffffff"/><rect x="0" y="135.56" width="33.89" height="33.89" fill="#0f172a"/><path d="M 0 169.45 A 33.89 33.89 0 0 0 33.89 135.56 L 0 135.56" fill="#0f172a"/><rect x="33.89" y="135.56" width="33.89" height="33.89" fill="#3b82f6"/><path d="M 33.89 135.56 A 33.89 33.89 0 0 0 67.78 169.45 L 67.78 135.56" fill="#0f172a"/><rect x="0" y="169.44" width="33.89" height="33.89" fill="#0f172a"/><path d="M 0 169.44 A 33.89 33.89 0 0 1 33.89 203.32999999999998 L 0 203.32999999999998" fill="#3b82f6"/><rect x="33.89" y="169.44" width="33.89" height="33.89" fill="#3b82f6"/><path d="M 33.89 203.32999999999998 A 33.89 33.89 0 0 1  67.78 169.44 L 67.78 203.32999999999998" fill="#0f172a"/><rect x="67.77777777777777" y="135.55555555555554" width="67.77777777777777" height="67.77777777777777" fill="#ffffff"/><rect x="67.78" y="135.56" width="33.89" height="33.89" fill="#0f172a"/><path d="M 67.78 169.45 A 33.89 33.89 0 0 0 101.67 135.56 L 67.78 135.56" fill="#0f172a"/><rect x="101.67" y="135.56" width="33.89" height="33.89" fill="#3b82f6"/><path d="M 101.67 135.56 A 33.89 33.89 0 0 0 135.56 169.45 L 135.56 135.56" fill="#3b82f6"/><rect x="67.78" y="169.44" width="33.89" height="33.89" fill="#3b82f6"/><path d="M 67.78 169.44 A 33.89 33.89 0 0 1 101.67 203.32999999999998 L 67.78 203.32999999999998" fill="#3b82f6"/><rect x="101.67" y="169.44" width="33.89" height="33.89" fill="#3b82f6"/><path d="M 101.67 203.32999999999998 A 33.89 33.89 0 0 1  135.56 169.44 L 135.56 203.32999999999998" fill="#3b82f6"/><rect x="135.56" y="135.56" width="67.78" height="67.78" fill="#3b82f6"/><polygon points="135.56,135.56 203.34,135.56 135.56,203.34" fill="#0f172a"/><rect x="203.33" y="135.56" width="67.78" height="67.78" fill="#3b82f6"/><rect x="203.33" y="135.56" width="67.78" height="67.78" fill="#3b82f6"/><rect x="271.1111111111111" y="135.55555555555554" width="67.77777777777777" height="67.77777777777777" fill="#ffffff"/><rect x="271.11" y="135.56" width="33.89" height="33.89" fill="#3b82f6"/><polygon points="305,135.56 305,169.45 271.11,169.45" fill="#3b82f6"/><rect x="305" y="135.56" width="33.89" height="33.89" fill="#0f172a"/><polygon points="305,135.56 338.89,135.56 305,169.45" fill="#3b82f6"/><rect x="271.11" y="169.44" width="33.89" height="33.89" fill="#0f172a"/><polygon points="271.11,169.44 305,169.44 305,203.32999999999998" fill="#3b82f6"/><rect x="305" y="169.44" width="33.89" height="33.89" fill="#0f172a"/><polygon points="305,169.44 338.89,203.32999999999998 305,203.32999999999998" fill="#3b82f6"/><rect x="338.88888888888886" y="135.55555555555554" width="67.77777777777777" height="67.77777777777777" fill="#ffffff"/><rect x="338.89" y="135.56" width="33.89" height="33.89" fill="#3b82f6"/><path d="M 338.89 169.45 A 33.89 33.89 0 0 1 372.78 135.56 L 372.78 144.0325 A 25.4175 25.4175 0 0 0 347.3625 169.45" fill="#0f172a"/><rect x="372.78" y="135.56" width="33.89" height="33.89" fill="#0f172a"/><path d="M 372.78 135.56 A 33.89 33.89 0 0 1 406.66999999999996 169.45 L 398.1975 169.45 A 25.4175 25.4175 0 0 0 372.78 144.0325" fill="#0f172a"/><rect x="338.89" y="169.44" width="33.89" height="33.89" fill="#0f172a"/><path d="M 338.89 169.44 A 33.89 33.89 0 0 0 372.78 203.32999999999998 L 372.78 194.8575 A 25.4175 25.4175 0 0 1 347.3625 169.44" fill="#3b82f6"/><rect x="372.78" y="169.44" width="33.89" height="33.89" fill="#3b82f6"/><path d="M 372.78 203.32999999999998 A 33.89 33.89 0 0 0 406.66999999999996 169.44 L 398.1975 169.44 A 25.4175 25.4175 0 0 1 372.78 194.8575" fill="#3b82f6"/><rect x="406.67" y="135.56" width="67.78" height="67.78" fill="#3b82f6"/><rect x="406.67" y="135.56" width="67.78" height="67.78" fill="#3b82f6"/><rect x="474.4444444444444" y="135.55555555555554" width="67.77777777777777" height="67.77777777777777" fill="#ffffff"/><rect x="474.44" y="135.56" width="33.89" height="33.89" fill="#0f172a"/><path d="M 474.44 135.56 A 33.89 33.89 0 0 0 508.33 169.45 L 508.33 135.56" fill="#0f172a"/><rect x="508.33" y="135.56" width="33.89" height="33.89" fill="#0f172a"/><path d="M 508.33 169.45 A 33.89 33.89 0 0 0 542.22 135.56 L 508.33 135.56" fill="#3b82f6"/><rect x="474.44" y="169.44" width="33.89" height="33.89" fill="#3b82f6"/><path d="M 474.44 203.32999999999998 A 33.89 33.89 0 0 1  508.33 169.44 L 508.33 203.32999999999998" fill="#3b82f6"/><rect x="508.33" y="169.44" width="33.89" height="33.89" fill="#3b82f6"/><path d="M 508.33 169.44 A 33.89 33.89 0 0 1 542.22 203.32999999999998 L 508.33 203.32999999999998" fill="#3b82f6"/><rect x="542.2222222222222" y="135.55555555555554" width="67.77777777777777" height="67.77777777777777" fill="#ffffff"/><rect x="542.22" y="135.56" width="33.89" height="33.89" fill="#0f172a"/><polygon points="576.11,135.56 576.11,169.45 542.22,169.45" fill="#0f172a"/><rect x="576.11" y="135.56" width="33.89" height="33.89" fill="#0f172a"/><polygon points="576.11,135.56 610,169.45 576.11,169.45" fill="#0f172a"/><rect x="542.22" y="169.44" width="33.89" height="33.89" fill="#0f172a"/><polygon points="542.22,169.44 576.11,169.44 542.22,203.32999999999998" fill="#0f172a"/><rect x="576.11" y="169.44" width="33.89" height="33.89" fill="#0f172a"/><polygon points="576.11,169.44 610,169.44 610,203.32999999999998" fill="#0f172a"/><rect x="610" y="135.55555555555554" width="67.77777777777777" height="67.77777777777777" fill="#ffffff"/><rect x="610" y="135.56" width="33.89" height="33.89" fill="#3b82f6"/><path d="M 610 169.45 A 33.89 33.89 0 0 1  643.89 135.56 L 643.89 169.45" fill="#3b82f6"/><rect x="643.89" y="135.56" width="33.89" height="33.89" fill="#0f172a"/><path d="M 643.89 135.56 A 33.89 33.89 0 0 1 677.78 169.45 L 643.89 169.45" fill="#3b82f6"/><rect x="610" y="169.44" width="33.89" height="33.89" fill="#0f172a"/><path d="M 610 169.44 A 33.89 33.89 0 0 0 643.89 203.32999999999998 L 643.89 169.44" fill="#0f172a"/><rect x="643.89" y="169.44" width="33.89" height="33.89" fill="#3b82f6"/><path d="M 643.89 203.32999999999998 A 33.89 33.89 0 0 0 677.78 169.44 L 643.89 169.44" fill="#0f172a"/><rect x="677.7777777777777" y="135.55555555555554" width="67.77777777777777" height="67.77777777777777" fill="#ffffff"/><rect x="677.78" y="135.56" width="33.89" height="33.89" fill="#0f172a"/><path d="M 677.78 169.45 A 33.89 33.89 0 0 1  711.67 135.56 L 711.67 169.45" fill="#3b82f6"/><rect x="711.67" y="135.56" width="33.89" height="33.89" fill="#3b82f6"/><path d="M 711.67 135.56 A 33.89 33.89 0 0 1 745.56 169.45 L 711.67 169.45" fill="#0f172a"/><rect x="677.78" y="169.44" width="33.89" height="33.89" fill="#0f172a"/><path d="M 677.78 169.44 A 33.89 33.89 0 0 0 711.67 203.32999999999998 L 711.67 169.44" fill="#0f172a"/><rect x="711.67" y="169.44" width="33.89" height="33.89" fill="#0f172a"/><path d="M 711.67 203.32999999999998 A 33.89 33.89 0 0 0 745.56 169.44 L 711.67 169.44" fill="#3b82f6"/><rect x="745.56" y="135.56" width="67.78" height="67.78" fill="#3b82f6"/><polygon points="745.56,135.56 813.3399999999999,135.56 745.56,203.34" fill="#0f172a"/><rect x="813.33" y="135.56" width="67.78" height="67.78" fill="#0f172a"/><rect x="813.33" y="135.56" width="67.78" height="67.78" fill="#3b82f6"/><rect x="881.11" y="135.56" width="67.78" height="67.78" fill="#0f172a"/><rect x="881.11" y="135.56" width="67.78" height="67.78" fill="#0f172a"/><rect x="948.8888888888888" y="135.55555555555554" width="67.77777777777777" height="67.77777777777777" fill="#ffffff"/><rect x="948.89" y="135.56" width="33.89" height="33.89" fill="#3b82f6"/><path d="M 948.89 135.56 A 33.89 33.89 0 0 1 982.78 169.45 L 948.89 169.45" fill="#3b82f6"/><rect x="982.78" y="135.56" width="33.89" height="33.89" fill="#0f172a"/><path d="M 982.78 169.45 A 33.89 33.89 0 0 1  1016.67 135.56 L 1016.67 169.45" fill="#3b82f6"/><rect x="948.89" y="169.44" width="33.89" height="33.89" fill="#0f172a"/><path d="M 948.89 203.32999999999998 A 33.89 33.89 0 0 0 982.78 169.44 L 948.89 169.44" fill="#0f172a"/><rect x="982.78" y="169.44" width="33.89" height="33.89" fill="#0f172a"/><path d="M 982.78 169.44 A 33.89 33.89 0 0 0 1016.67 203.32999999999998 L 1016.67 169.44" fill="#0f172a"/><rect x="1016.6666666666665" y="135.55555555555554" width="67.77777777777777" height="67.77777777777777" fill="#ffffff"/><rect x="1016.67" y="135.56" width="33.89" height="33.89" fill="#3b82f6"/><circle cx="1033.615" cy="152.505" r="16.945" fill="#0f172a"/><rect x="1050.56" y="135.56" width="33.89" height="33.89" fill="#0f172a"/><rect x="1050.56" y="135.56" width="33.89" height="33.89" fill="#3b82f6"/><rect x="1016.67" y="169.44" width="33.89" height="33.89" fill="#3b82f6"/><circle cx="1033.615" cy="186.385" r="16.945" fill="#0f172a"/><rect x="1050.56" y="169.44" width="33.89" height="33.89" fill="#0f172a"/><rect x="1050.56" y="169.44" width="33.89" height="33.89" fill="#3b82f6"/><rect x="0" y="203.33333333333331" width="67.77777777777777" height="67.77777777777777" fill="#ffffff"/><rect x="0" y="203.33" width="33.89" height="33.89" fill="#3b82f6"/><circle cx="16.945" cy="220.275" r="16.945" fill="#3b82f6"/><rect x="33.89" y="203.33" width="33.89" height="33.89" fill="#3b82f6"/><rect x="33.89" y="203.33" width="33.89" height="33.89" fill="#0f172a"/><rect x="0" y="237.22" width="33.89" height="33.89" fill="#0f172a"/><circle cx="16.945" cy="254.165" r="16.945" fill="#3b82f6"/><rect x="33.89" y="237.22" width="33.89" height="33.89" fill="#0f172a"/><rect x="33.89" y="237.22" width="33.89" height="33.89" fill="#0f172a"/><rect x="67.78" y="203.33" width="67.78" height="67.78" fill="#0f172a"/><rect x="67.78" y="203.33" width="67.78" height="67.78" fill="#3b82f6"/><rect x="135.56" y="203.33" width="67.78" height="67.78" fill="#3b82f6"/><polygon points="203.34,203.33 203.34,271.11 135.56,271.11" fill="#0f172a"/><rect x="203.33" y="203.33" width="67.78" height="67.78" fill="#0f172a"/><rect x="203.33" y="203.33" width="67.78" height="67.78" fill="#0f172a"/><rect x="271.11" y="203.33" width="67.78" height="67.78" fill="#3b82f6"/><rect x="271.11" y="203.33" width="67.78" height="67.78" fill="#3b82f6"/><rect x="338.89" y="203.33" width="67.78" height="67.78" fill="#3b82f6"/><polygon points="338.89,203.33 406.66999999999996,271.11 338.89,271.11" fill="#3b82f6"/><rect x="406.67" y="203.33" width="67.78" height="67.78" fill="#0f172a"/><polygon points="406.67,203.33 474.45000000000005,203.33 474.45000000000005,271.11" fill="#3b82f6"/><rect x="474.4444444444444" y="203.33333333333331" width="67.77777777777777" height="67.77777777777777" fill="#ffffff"/><rect x="474.44" y="203.33" width="33.89" height="33.89" fill="#3b82f6"/><circle cx="491.385" cy="220.275" r="16.945" fill="#3b82f6"/><rect x="508.33" y="203.33" width="33.89" height="33.89" fill="#0f172a"/><rect x="508.33" y="203.33" width="33.89" height="33.89" fill="#3b82f6"/><rect x="474.44" y="237.22" width="33.89" height="33.89" fill="#3b82f6"/><circle cx="491.385" cy="254.165" r="16.945" fill="#3b82f6"/><rect x="508.33" y="237.22" width="33.89" height="33.89" fill="#3b82f6"/><rect x="508.33" y="237.22" width="33.89" height="33.89" fill="#3b82f6"/><rect x="542.22" y="203.33" width="67.78" height="67.78" fill="#0f172a"/><path d="M 542.22 271.11 A 67.78 67.78 0 0 0 610 203.33 L 542.22 203.33" fill="#0f172a"/><rect x="610" y="203.33" width="67.78" height="67.78" fill="#0f172a"/><path d="M 610 203.33 A 67.78 67.78 0 0 1 677.78 271.11 L 610 271.11" fill="#3b82f6"/><rect x="677.7777777777777" y="203.33333333333331" width="67.77777777777777" height="67.77777777777777" fill="#ffffff"/><rect x="677.78" y="203.33" width="33.89" height="33.89" fill="#3b82f6"/><path d="M 677.78 237.22000000000003 A 33.89 33.89 0 0 1  711.67 203.33 L 711.67 237.22000000000003" fill="#0f172a"/><rect x="711.67" y="203.33" width="33.89" height="33.89" fill="#0f172a"/><path d="M 711.67 203.33 A 33.89 33.89 0 0 1 745.56 237.22000000000003 L 711.67 237.22000000000003" fill="#3b82f6"/><rect x="677.78" y="237.22" width="33.89" height="33.89" fill="#3b82f6"/><path d="M 677.78 237.22 A 33.89 33.89 0 0 0 711.67 271.11 L 711.67 237.22" fill="#3b82f6"/><rect x="711.67" y="237.22" width="33.89" height="33.89" fill="#3b82f6"/><path d="M 711.67 271.11 A 33.89 33.89 0 0 0 745.56 237.22 L 711.67 237.22" fill="#3b82f6"/><rect x="745.56" y="203.33" width="67.78" height="67.78" fill="#3b82f6"/><path d="M 745.56 271.11 A 67.78 67.78 0 0 1  813.3399999999999 203.33 L 745.56 271.11 A 67.78 67.78 0 0 0 813.3399999999999 203.33" fill="#3b82f6"/><rect x="813.33" y="203.33" width="67.78" height="67.78" fill="#0f172a"/><path d="M 813.33 203.33 A 67.78 67.78 0 0 1 881.11 271.11 L 813.33 271.11" fill="#0f172a"/><rect x="881.1111111111111" y="203.33333333333331" width="67.77777777777777" height="67.77777777777777" fill="#ffffff"/><rect x="881.11" y="203.33" width="33.89" height="33.89" fill="#0f172a"/><polygon points="915,203.33 915,237.22000000000003 881.11,237.22000000000003" fill="#0f172a"/><rect x="915" y="203.33" width="33.89" height="33.89" fill="#0f172a"/><polygon points="915,203.33 948.89,237.22000000000003 915,237.22000000000003" fill="#0f172a"/><rect x="881.11" y="237.22" width="33.89" height="33.89" fill="#3b82f6"/><polygon points="881.11,237.22 915,237.22 881.11,271.11" fill="#3b82f6"/><rect x="915" y="237.22" width="33.89" height="33.89" fill="#3b82f6"/><polygon points="915,237.22 948.89,237.22 948.89,271.11" fill="#0f172a"/><rect x="948.89" y="203.33" width="67.78" height="67.78" fill="#3b82f6"/><path d="M 948.89 203.33 A 67.78 67.78 0 0 0 1016.67 271.11 L 1016.67 203.33" fill="#3b82f6"/><rect x="1016.67" y="203.33" width="67.78" height="67.78" fill="#3b82f6"/><polygon points="1016.67,203.33 1084.45,203.33 1016.67,271.11" fill="#0f172a"/><rect x="0" y="271.1111111111111" width="67.77777777777777" height="67.77777777777777" fill="#ffffff"/><rect x="0" y="271.11" width="33.89" height="33.89" fill="#0f172a"/><polygon points="33.89,271.11 33.89,305 0,305" fill="#0f172a"/><rect x="33.89" y="271.11" width="33.89" height="33.89" fill="#3b82f6"/><polygon points="33.89,271.11 67.78,305 33.89,305" fill="#3b82f6"/><rect x="0" y="305" width="33.89" height="33.89" fill="#0f172a"/><polygon points="0,305 33.89,305 33.89,338.89" fill="#0f172a"/><rect x="33.89" y="305" width="33.89" height="33.89" fill="#0f172a"/><polygon points="33.89,305 67.78,305 33.89,338.89" fill="#0f172a"/><rect x="67.78" y="271.11" width="67.78" height="67.78" fill="#0f172a"/><rect x="67.78" y="271.11" width="67.78" height="67.78" fill="#0f172a"/><rect x="135.56" y="271.11" width="67.78" height="67.78" fill="#0f172a"/><rect x="135.56" y="271.11" width="67.78" height="67.78" fill="#3b82f6"/><rect x="203.33333333333331" y="271.1111111111111" width="67.77777777777777" height="67.77777777777777" fill="#ffffff"/><rect x="203.33" y="271.11" width="33.89" height="33.89" fill="#0f172a"/><polygon points="237.22000000000003,271.11 237.22000000000003,305 203.33,305" fill="#3b82f6"/><rect x="237.22" y="271.11" width="33.89" height="33.89" fill="#0f172a"/><polygon points="237.22,271.11 271.11,305 237.22,305" fill="#3b82f6"/><rect x="203.33" y="305" width="33.89" height="33.89" fill="#0f172a"/><polygon points="203.33,305 237.22000000000003,305 203.33,338.89" fill="#3b82f6"/><rect x="237.22" y="305" width="33.89" height="33.89" fill="#3b82f6"/><polygon points="237.22,305 271.11,305 271.11,338.89" fill="#3b82f6"/><rect x="271.1111111111111" y="271.1111111111111" width="67.77777777777777" height="67.77777777777777" fill="#ffffff"/><rect x="271.11" y="271.11" width="33.89" height="33.89" fill="#3b82f6"/><path d="M 271.11 305 A 33.89 33.89 0 0 1 305 271.11 L 305 279.58250000000004 A 25.4175 25.4175 0 0 0 279.58250000000004 305" fill="#0f172a"/><rect x="305" y="271.11" width="33.89" height="33.89" fill="#0f172a"/><path d="M 305 271.11 A 33.89 33.89 0 0 1 338.89 305 L 330.4175 305 A 25.4175 25.4175 0 0 0 305 279.58250000000004" fill="#0f172a"/><rect x="271.11" y="305" width="33.89" height="33.89" fill="#3b82f6"/><path d="M 271.11 305 A 33.89 33.89 0 0 0 305 338.89 L 305 330.4175 A 25.4175 25.4175 0 0 1 279.58250000000004 305" fill="#0f172a"/><rect x="305" y="305" width="33.89" height="33.89" fill="#3b82f6"/><path d="M 305 338.89 A 33.89 33.89 0 0 0 338.89 305 L 330.4175 305 A 25.4175 25.4175 0 0 1 305 330.4175" fill="#0f172a"/><rect x="338.88888888888886" y="271.1111111111111" width="67.77777777777777" height="67.77777777777777" fill="#ffffff"/><rect x="338.89" y="271.11" width="33.89" height="33.89" fill="#3b82f6"/><polygon points="372.78,271.11 372.78,305 338.89,305" fill="#3b82f6"/><rect x="372.78" y="271.11" width="33.89" height="33.89" fill="#0f172a"/><polygon points="372.78,271.11 406.66999999999996,305 372.78,305" fill="#3b82f6"/><rect x="338.89" y="305" width="33.89" height="33.89" fill="#0f172a"/><polygon points="338.89,305 372.78,305 338.89,338.89" fill="#3b82f6"/><rect x="372.78" y="305" width="33.89" height="33.89" fill="#3b82f6"/><polygon points="372.78,305 406.66999999999996,305 406.66999999999996,338.89" fill="#0f172a"/><rect x="406.67" y="271.11" width="67.78" height="67.78" fill="#3b82f6"/><polygon points="474.45000000000005,271.11 474.45000000000005,338.89 406.67,338.89" fill="#3b82f6"/><rect x="474.44" y="271.11" width="67.78" height="67.78" fill="#0f172a"/><path d="M 474.44 338.89 A 67.78 67.78 0 0 1  542.22 271.11 L 474.44 338.89 A 67.78 67.78 0 0 0 542.22 271.11" fill="#0f172a"/><rect x="542.2222222222222" y="271.1111111111111" width="67.77777777777777" height="67.77777777777777" fill="#ffffff"/><rect x="542.22" y="271.11" width="33.89" height="33.89" fill="#3b82f6"/><path d="M 542.22 305 A 33.89 33.89 0 0 0 576.11 271.11 L 542.22 271.11" fill="#3b82f6"/><rect x="576.11" y="271.11" width="33.89" height="33.89" fill="#0f172a"/><path d="M 576.11 271.11 A 33.89 33.89 0 0 0 610 305 L 610 271.11" fill="#3b82f6"/><rect x="542.22" y="305" width="33.89" height="33.89" fill="#0f172a"/><path d="M 542.22 305 A 33.89 33.89 0 0 1 576.11 338.89 L 542.22 338.89" fill="#0f172a"/><rect x="576.11" y="305" width="33.89" height="33.89" fill="#3b82f6"/><path d="M 576.11 338.89 A 33.89 33.89 0 0 1  610 305 L 610 338.89" fill="#3b82f6"/><rect x="610" y="271.11" width="67.78" height="67.78" fill="#3b82f6"/><polygon points="610,271.11 677.78,338.89 610,338.89" fill="#0f172a"/><rect x="677.78" y="271.11" width="67.78" height="67.78" fill="#0f172a"/><polygon points="677.78,271.11 745.56,338.89 677.78,338.89" fill="#0f172a"/><rect x="745.5555555555554" y="271.1111111111111" width="67.77777777777777" height="67.77777777777777" fill="#ffffff"/><rect x="745.56" y="271.11" width="33.89" height="33.89" fill="#0f172a"/><path d="M 745.56 305 A 33.89 33.89 0 0 0 779.4499999999999 271.11 L 745.56 271.11" fill="#3b82f6"/><rect x="779.44" y="271.11" width="33.89" height="33.89" fill="#3b82f6"/><path d="M 779.44 271.11 A 33.89 33.89 0 0 0 813.33 305 L 813.33 271.11" fill="#0f172a"/><rect x="745.56" y="305" width="33.89" height="33.89" fill="#0f172a"/><path d="M 745.56 305 A 33.89 33.89 0 0 1 779.4499999999999 338.89 L 745.56 338.89" fill="#3b82f6"/><rect x="779.44" y="305" width="33.89" height="33.89" fill="#3b82f6"/><path d="M 779.44 338.89 A 33.89 33.89 0 0 1  813.33 305 L 813.33 338.89" fill="#0f172a"/><rect x="813.3333333333333" y="271.1111111111111" width="67.77777777777777" height="67.77777777777777" fill="#ffffff"/><rect x="813.33" y="271.11" width="33.89" height="33.89" fill="#3b82f6"/><polygon points="847.22,271.11 847.22,305 813.33,305" fill="#3b82f6"/><rect x="847.22" y="271.11" width="33.89" height="33.89" fill="#0f172a"/><polygon points="847.22,271.11 881.11,271.11 847.22,305" fill="#3b82f6"/><rect x="813.33" y="305" width="33.89" height="33.89" fill="#3b82f6"/><polygon points="813.33,305 847.22,305 847.22,338.89" fill="#3b82f6"/><rect x="847.22" y="305" width="33.89" height="33.89" fill="#3b82f6"/><polygon points="847.22,305 881.11,338.89 847.22,338.89" fill="#3b82f6"/><rect x="881.11" y="271.11" width="67.78" height="67.78" fill="#3b82f6"/><path d="M 881.11 338.89 A 67.78 67.78 0 0 1  948.89 271.11 L 948.89 338.89" fill="#3b82f6"/><rect x="948.89" y="271.11" width="67.78" height="67.78" fill="#0f172a"/><path d="M 948.89 338.89 A 67.78 67.78 0 0 0 1016.67 271.11 L 948.89 271.11" fill="#0f172a"/><rect x="1016.67" y="271.11" width="67.78" height="67.78" fill="#3b82f6"/><path d="M 1016.67 338.89 A 67.78 67.78 0 0 1  1084.45 271.11 L 1084.45 338.89" fill="#3b82f6"/><rect x="0" y="338.89" width="67.78" height="67.78" fill="#0f172a"/><rect x="0" y="338.89" width="67.78" height="67.78" fill="#0f172a"/><rect x="67.77777777777777" y="338.88888888888886" width="67.77777777777777" height="67.77777777777777" fill="#ffffff"/><rect x="67.78" y="338.89" width="33.89" height="33.89" fill="#3b82f6"/><path d="M 67.78 338.89 A 33.89 33.89 0 0 1 101.67 372.78 L 67.78 372.78" fill="#0f172a"/><rect x="101.67" y="338.89" width="33.89" height="33.89" fill="#0f172a"/><path d="M 101.67 372.78 A 33.89 33.89 0 0 1  135.56 338.89 L 135.56 372.78" fill="#3b82f6"/><rect x="67.78" y="372.78" width="33.89" height="33.89" fill="#0f172a"/><path d="M 67.78 406.66999999999996 A 33.89 33.89 0 0 0 101.67 372.78 L 67.78 372.78" fill="#0f172a"/><rect x="101.67" y="372.78" width="33.89" height="33.89" fill="#3b82f6"/><path d="M 101.67 372.78 A 33.89 33.89 0 0 0 135.56 406.66999999999996 L 135.56 372.78" fill="#3b82f6"/><rect x="135.56" y="338.89" width="67.78" height="67.78" fill="#0f172a"/><polygon points="135.56,338.89 203.34,338.89 135.56,406.66999999999996" fill="#3b82f6"/><rect x="203.33333333333331" y="338.88888888888886" width="67.77777777777777" height="67.77777777777777" fill="#ffffff"/><rect x="203.33" y="338.89" width="33.89" height="33.89" fill="#3b82f6"/><path d="M 203.33 372.78 A 33.89 33.89 0 0 1 237.22000000000003 338.89 L 237.22000000000003 347.3625 A 25.4175 25.4175 0 0 0 211.8025 372.78" fill="#3b82f6"/><rect x="237.22" y="338.89" width="33.89" height="33.89" fill="#3b82f6"/><path d="M 237.22 338.89 A 33.89 33.89 0 0 1 271.11 372.78 L 262.6375 372.78 A 25.4175 25.4175 0 0 0 237.22 347.3625" fill="#3b82f6"/><rect x="203.33" y="372.78" width="33.89" height="33.89" fill="#0f172a"/><path d="M 203.33 372.78 A 33.89 33.89 0 0 0 237.22000000000003 406.66999999999996 L 237.22000000000003 398.1975 A 25.4175 25.4175 0 0 1 211.8025 372.78" fill="#3b82f6"/><rect x="237.22" y="372.78" width="33.89" height="33.89" fill="#3b82f6"/><path d="M 237.22 406.66999999999996 A 33.89 33.89 0 0 0 271.11 372.78 L 262.6375 372.78 A 25.4175 25.4175 0 0 1 237.22 398.1975" fill="#0f172a"/><rect x="271.11" y="338.89" width="67.78" height="67.78" fill="#3b82f6"/><path d="M 271.11 406.66999999999996 A 67.78 67.78 0 0 1  338.89 338.89 L 271.11 406.66999999999996 A 67.78 67.78 0 0 0 338.89 338.89" fill="#3b82f6"/><rect x="338.89" y="338.89" width="67.78" height="67.78" fill="#3b82f6"/><rect x="338.89" y="338.89" width="67.78" height="67.78" fill="#0f172a"/><rect x="406.66666666666663" y="338.88888888888886" width="67.77777777777777" height="67.77777777777777" fill="#ffffff"/><rect x="406.67" y="338.89" width="33.89" height="33.89" fill="#0f172a"/><path d="M 406.67 372.78 A 33.89 33.89 0 0 1 440.56 338.89 L 440.56 347.3625 A 25.4175 25.4175 0 0 0 415.14250000000004 372.78" fill="#0f172a"/><rect x="440.56" y="338.89" width="33.89" height="33.89" fill="#3b82f6"/><path d="M 440.56 338.89 A 33.89 33.89 0 0 1 474.45 372.78 L 465.9775 372.78 A 25.4175 25.4175 0 0 0 440.56 347.3625" fill="#0f172a"/><rect x="406.67" y="372.78" width="33.89" height="33.89" fill="#0f172a"/><path d="M 406.67 372.78 A 33.89 33.89 0 0 0 440.56 406.66999999999996 L 440.56 398.1975 A 25.4175 25.4175 0 0 1 415.14250000000004 372.78" fill="#0f172a"/><rect x="440.56" y="372.78" width="33.89" height="33.89" fill="#0f172a"/><path d="M 440.56 406.66999999999996 A 33.89 33.89 0 0 0 474.45 372.78 L 465.9775 372.78 A 25.4175 25.4175 0 0 1 440.56 398.1975" fill="#0f172a"/><rect x="474.4444444444444" y="338.88888888888886" width="67.77777777777777" height="67.77777777777777" fill="#ffffff"/><rect x="474.44" y="338.89" width="33.89" height="33.89" fill="#3b82f6"/><path d="M 474.44 372.78 A 33.89 33.89 0 0 1 508.33 338.89 L 508.33 347.3625 A 25.4175 25.4175 0 0 0 482.9125 372.78" fill="#3b82f6"/><rect x="508.33" y="338.89" width="33.89" height="33.89" fill="#3b82f6"/><path d="M 508.33 338.89 A 33.89 33.89 0 0 1 542.22 372.78 L 533.7475 372.78 A 25.4175 25.4175 0 0 0 508.33 347.3625" fill="#3b82f6"/><rect x="474.44" y="372.78" width="33.89" height="33.89" fill="#0f172a"/><path d="M 474.44 372.78 A 33.89 33.89 0 0 0 508.33 406.66999999999996 L 508.33 398.1975 A 25.4175 25.4175 0 0 1 482.9125 372.78" fill="#3b82f6"/><rect x="508.33" y="372.78" width="33.89" height="33.89" fill="#0f172a"/><path d="M 508.33 406.66999999999996 A 33.89 33.89 0 0 0 542.22 372.78 L 533.7475 372.78 A 25.4175 25.4175 0 0 1 508.33 398.1975" fill="#0f172a"/><rect x="542.22" y="338.89" width="67.78" height="67.78" fill="#3b82f6"/><rect x="542.22" y="338.89" width="67.78" height="67.78" fill="#0f172a"/><rect x="610" y="338.88888888888886" width="67.77777777777777" height="67.77777777777777" fill="#ffffff"/><rect x="610" y="338.89" width="33.89" height="33.89" fill="#0f172a"/><polygon points="643.89,338.89 643.89,372.78 610,372.78" fill="#0f172a"/><rect x="643.89" y="338.89" width="33.89" height="33.89" fill="#3b82f6"/><polygon points="643.89,338.89 677.78,372.78 643.89,372.78" fill="#0f172a"/><rect x="610" y="372.78" width="33.89" height="33.89" fill="#3b82f6"/><polygon points="610,372.78 643.89,372.78 610,406.66999999999996" fill="#3b82f6"/><rect x="643.89" y="372.78" width="33.89" height="33.89" fill="#3b82f6"/><polygon points="643.89,372.78 677.78,372.78 677.78,406.66999999999996" fill="#3b82f6"/><rect x="677.7777777777777" y="338.88888888888886" width="67.77777777777777" height="67.77777777777777" fill="#ffffff"/><rect x="677.78" y="338.89" width="33.89" height="33.89" fill="#0f172a"/><path d="M 677.78 372.78 A 33.89 33.89 0 0 1  711.67 338.89 L 711.67 372.78" fill="#3b82f6"/><rect x="711.67" y="338.89" width="33.89" height="33.89" fill="#3b82f6"/><path d="M 711.67 338.89 A 33.89 33.89 0 0 1 745.56 372.78 L 711.67 372.78" fill="#3b82f6"/><rect x="677.78" y="372.78" width="33.89" height="33.89" fill="#0f172a"/><path d="M 677.78 372.78 A 33.89 33.89 0 0 0 711.67 406.66999999999996 L 711.67 372.78" fill="#3b82f6"/><rect x="711.67" y="372.78" width="33.89" height="33.89" fill="#0f172a"/><path d="M 711.67 406.66999999999996 A 33.89 33.89 0 0 0 745.56 372.78 L 711.67 372.78" fill="#3b82f6"/><rect x="745.56" y="338.89" width="67.78" height="67.78" fill="#3b82f6"/><polygon points="813.3399999999999,338.89 813.3399999999999,406.66999999999996 745.56,406.66999999999996" fill="#0f172a"/><rect x="813.33" y="338.89" width="67.78" height="67.78" fill="#0f172a"/><rect x="813.33" y="338.89" width="67.78" height="67.78" fill="#3b82f6"/><rect x="881.1111111111111" y="338.88888888888886" width="67.77777777777777" height="67.77777777777777" fill="#ffffff"/><rect x="881.11" y="338.89" width="33.89" height="33.89" fill="#3b82f6"/><circle cx="898.0550000000001" cy="355.835" r="16.945" fill="#0f172a"/><rect x="915" y="338.89" width="33.89" height="33.89" fill="#3b82f6"/><rect x="915" y="338.89" width="33.89" height="33.89" fill="#0f172a"/><rect x="881.11" y="372.78" width="33.89" height="33.89" fill="#0f172a"/><circle cx="898.0550000000001" cy="389.72499999999997" r="16.945" fill="#3b82f6"/><rect x="915" y="372.78" width="33.89" height="33.89" fill="#3b82f6"/><rect x="915" y="372.78" width="33.89" height="33.89" fill="#3b82f6"/><rect x="948.8888888888888" y="338.88888888888886" width="67.77777777777777" height="67.77777777777777" fill="#ffffff"/><rect x="948.89" y="338.89" width="33.89" height="33.89" fill="#0f172a"/><polygon points="982.78,338.89 982.78,372.78 948.89,372.78" fill="#3b82f6"/><rect x="982.78" y="338.89" width="33.89" height="33.89" fill="#3b82f6"/><polygon points="982.78,338.89 1016.67,372.78 982.78,372.78" fill="#3b82f6"/><rect x="948.89" y="372.78" width="33.89" height="33.89" fill="#0f172a"/><polygon points="948.89,372.78 982.78,372.78 948.89,406.66999999999996" fill="#0f172a"/><rect x="982.78" y="372.78" width="33.89" height="33.89" fill="#3b82f6"/><polygon points="982.78,372.78 1016.67,372.78 1016.67,406.66999999999996" fill="#0f172a"/><rect x="1016.67" y="338.89" width="67.78" height="67.78" fill="#0f172a"/><rect x="1016.67" y="338.89" width="67.78" height="67.78" fill="#0f172a"/><rect x="0" y="406.66666666666663" width="67.77777777777777" height="67.77777777777777" fill="#ffffff"/><rect x="0" y="406.67" width="33.89" height="33.89" fill="#3b82f6"/><path d="M 0 440.56 A 33.89 33.89 0 0 1  33.89 406.67 L 33.89 440.56" fill="#3b82f6"/><rect x="33.89" y="406.67" width="33.89" height="33.89" fill="#3b82f6"/><path d="M 33.89 406.67 A 33.89 33.89 0 0 1 67.78 440.56 L 33.89 440.56" fill="#3b82f6"/><rect x="0" y="440.56" width="33.89" height="33.89" fill="#3b82f6"/><path d="M 0 440.56 A 33.89 33.89 0 0 0 33.89 474.45 L 33.89 440.56" fill="#0f172a"/><rect x="33.89" y="440.56" width="33.89" height="33.89" fill="#0f172a"/><path d="M 33.89 474.45 A 33.89 33.89 0 0 0 67.78 440.56 L 33.89 440.56" fill="#0f172a"/><rect x="67.78" y="406.67" width="67.78" height="67.78" fill="#3b82f6"/><rect x="67.78" y="406.67" width="67.78" height="67.78" fill="#0f172a"/><rect x="135.55555555555554" y="406.66666666666663" width="67.77777777777777" height="67.77777777777777" fill="#ffffff"/><rect x="135.56" y="406.67" width="33.89" height="33.89" fill="#0f172a"/><path d="M 135.56 406.67 A 33.89 33.89 0 0 1 169.45 440.56 L 135.56 440.56" fill="#0f172a"/><rect x="169.44" y="406.67" width="33.89" height="33.89" fill="#0f172a"/><path d="M 169.44 440.56 A 33.89 33.89 0 0 1  203.32999999999998 406.67 L 203.32999999999998 440.56" fill="#3b82f6"/><rect x="135.56" y="440.56" width="33.89" height="33.89" fill="#3b82f6"/><path d="M 135.56 474.45 A 33.89 33.89 0 0 0 169.45 440.56 L 135.56 440.56" fill="#0f172a"/><rect x="169.44" y="440.56" width="33.89" height="33.89" fill="#3b82f6"/><path d="M 169.44 440.56 A 33.89 33.89 0 0 0 203.32999999999998 474.45 L 203.32999999999998 440.56" fill="#0f172a"/><rect x="203.33333333333331" y="406.66666666666663" width="67.77777777777777" height="67.77777777777777" fill="#ffffff"/><rect x="203.33" y="406.67" width="33.89" height="33.89" fill="#3b82f6"/><path d="M 203.33 406.67 A 33.89 33.89 0 0 1 237.22000000000003 440.56 L 203.33 440.56" fill="#0f172a"/><rect x="237.22" y="406.67" width="33.89" height="33.89" fill="#3b82f6"/><path d="M 237.22 440.56 A 33.89 33.89 0 0 1  271.11 406.67 L 271.11 440.56" fill="#3b82f6"/><rect x="203.33" y="440.56" width="33.89" height="33.89" fill="#0f172a"/><path d="M 203.33 474.45 A 33.89 33.89 0 0 0 237.22000000000003 440.56 L 203.33 440.56" fill="#3b82f6"/><rect x="237.22" y="440.56" width="33.89" height="33.89" fill="#3b82f6"/><path d="M 237.22 440.56 A 33.89 33.89 0 0 0 271.11 474.45 L 271.11 440.56" fill="#0f172a"/><rect x="271.11" y="406.67" width="67.78" height="67.78" fill="#3b82f6"/><rect x="271.11" y="406.67" width="67.78" height="67.78" fill="#0f172a"/><rect x="338.89" y="406.67" width="67.78" height="67.78" fill="#0f172a"/><rect x="338.89" y="406.67" width="67.78" height="67.78" fill="#0f172a"/><rect x="406.66666666666663" y="406.66666666666663" width="67.77777777777777" height="67.77777777777777" fill="#ffffff"/><rect x="406.67" y="406.67" width="33.89" height="33.89" fill="#3b82f6"/><path d="M 406.67 440.56 A 33.89 33.89 0 0 1 440.56 406.67 L 440.56 415.14250000000004 A 25.4175 25.4175 0 0 0 415.14250000000004 440.56" fill="#0f172a"/><rect x="440.56" y="406.67" width="33.89" height="33.89" fill="#3b82f6"/><path d="M 440.56 406.67 A 33.89 33.89 0 0 1 474.45 440.56 L 465.9775 440.56 A 25.4175 25.4175 0 0 0 440.56 415.14250000000004" fill="#0f172a"/><rect x="406.67" y="440.56" width="33.89" height="33.89" fill="#3b82f6"/><path d="M 406.67 440.56 A 33.89 33.89 0 0 0 440.56 474.45 L 440.56 465.9775 A 25.4175 25.4175 0 0 1 415.14250000000004 440.56" fill="#3b82f6"/><rect x="440.56" y="440.56" width="33.89" height="33.89" fill="#0f172a"/><path d="M 440.56 474.45 A 33.89 33.89 0 0 0 474.45 440.56 L 465.9775 440.56 A 25.4175 25.4175 0 0 1 440.56 465.9775" fill="#3b82f6"/><rect x="474.4444444444444" y="406.66666666666663" width="67.77777777777777" height="67.77777777777777" fill="#ffffff"/><rect x="474.44" y="406.67" width="33.89" height="33.89" fill="#0f172a"/><path d="M 474.44 440.56 A 33.89 33.89 0 0 1  508.33 406.67 L 508.33 440.56" fill="#3b82f6"/><rect x="508.33" y="406.67" width="33.89" height="33.89" fill="#3b82f6"/><path d="M 508.33 406.67 A 33.89 33.89 0 0 1 542.22 440.56 L 508.33 440.56" fill="#3b82f6"/><rect x="474.44" y="440.56" width="33.89" height="33.89" fill="#3b82f6"/><path d="M 474.44 440.56 A 33.89 33.89 0 0 0 508.33 474.45 L 508.33 440.56" fill="#3b82f6"/><rect x="508.33" y="440.56" width="33.89" height="33.89" fill="#3b82f6"/><path d="M 508.33 474.45 A 33.89 33.89 0 0 0 542.22 440.56 L 508.33 440.56" fill="#0f172a"/><rect x="542.2222222222222" y="406.66666666666663" width="67.77777777777777" height="67.77777777777777" fill="#ffffff"/><rect x="542.22" y="406.67" width="33.89" height="33.89" fill="#0f172a"/><path d="M 542.22 440.56 A 33.89 33.89 0 0 0 576.11 406.67 L 542.22 406.67" fill="#0f172a"/><rect x="576.11" y="406.67" width="33.89" height="33.89" fill="#0f172a"/><path d="M 576.11 406.67 A 33.89 33.89 0 0 0 610 440.56 L 610 406.67" fill="#3b82f6"/><rect x="542.22" y="440.56" width="33.89" height="33.89" fill="#3b82f6"/><path d="M 542.22 440.56 A 33.89 33.89 0 0 1 576.11 474.45 L 542.22 474.45" fill="#3b82f6"/><rect x="576.11" y="440.56" width="33.89" height="33.89" fill="#3b82f6"/><path d="M 576.11 474.45 A 33.89 33.89 0 0 1  610 440.56 L 610 474.45" fill="#3b82f6"/><rect x="610" y="406.67" width="67.78" height="67.78" fill="#0f172a"/><polygon points="610,406.67 677.78,406.67 610,474.45000000000005" fill="#0f172a"/><rect x="677.78" y="406.67" width="67.78" height="67.78" fill="#3b82f6"/><polygon points="745.56,406.67 745.56,474.45000000000005 677.78,474.45000000000005" fill="#3b82f6"/><rect x="745.56" y="406.67" width="67.78" height="67.78" fill="#3b82f6"/><rect x="745.56" y="406.67" width="67.78" height="67.78" fill="#0f172a"/><rect x="813.33" y="406.67" width="67.78" height="67.78" fill="#3b82f6"/><polygon points="813.33,406.67 881.11,406.67 881.11,474.45000000000005" fill="#3b82f6"/><rect x="881.1111111111111" y="406.66666666666663" width="67.77777777777777" height="67.77777777777777" fill="#ffffff"/><rect x="881.11" y="406.67" width="33.89" height="33.89" fill="#0f172a"/><polygon points="915,406.67 915,440.56 881.11,440.56" fill="#3b82f6"/><rect x="915" y="406.67" width="33.89" height="33.89" fill="#0f172a"/><polygon points="915,406.67 948.89,440.56 915,440.56" fill="#3b82f6"/><rect x="881.11" y="440.56" width="33.89" height="33.89" fill="#0f172a"/><polygon points="881.11,440.56 915,440.56 915,474.45" fill="#0f172a"/><rect x="915" y="440.56" width="33.89" height="33.89" fill="#3b82f6"/><polygon points="915,440.56 948.89,440.56 915,474.45" fill="#0f172a"/><rect x="948.89" y="406.67" width="67.78" height="67.78" fill="#3b82f6"/><rect x="948.89" y="406.67" width="67.78" height="67.78" fill="#3b82f6"/><rect x="1016.6666666666665" y="406.66666666666663" width="67.77777777777777" height="67.77777777777777" fill="#ffffff"/><rect x="1016.67" y="406.67" width="33.89" height="33.89" fill="#3b82f6"/><polygon points="1050.56,406.67 1050.56,440.56 1016.67,440.56" fill="#0f172a"/><rect x="1050.56" y="406.67" width="33.89" height="33.89" fill="#0f172a"/><polygon points="1050.56,406.67 1084.45,440.56 1050.56,440.56" fill="#0f172a"/><rect x="1016.67" y="440.56" width="33.89" height="33.89" fill="#0f172a"/><polygon points="1016.67,440.56 1050.56,440.56 1016.67,474.45" fill="#0f172a"/><rect x="1050.56" y="440.56" width="33.89" height="33.89" fill="#3b82f6"/><polygon points="1050.56,440.56 1084.45,440.56 1084.45,474.45" fill="#0f172a"/><rect x="0" y="474.44" width="67.78" height="67.78" fill="#0f172a"/><polygon points="0,474.44 67.78,474.44 67.78,542.22" fill="#3b82f6"/><rect x="67.78" y="474.44" width="67.78" height="67.78" fill="#3b82f6"/><path d="M 67.78 542.22 A 67.78 67.78 0 0 1  135.56 474.44 L 135.56 542.22" fill="#3b82f6"/><rect x="135.55555555555554" y="474.4444444444444" width="67.77777777777777" height="67.77777777777777" fill="#ffffff"/><rect x="135.56" y="474.44" width="33.89" height="33.89" fill="#3b82f6"/><polygon points="169.45,474.44 169.45,508.33 135.56,508.33" fill="#0f172a"/><rect x="169.44" y="474.44" width="33.89" height="33.89" fill="#0f172a"/><polygon points="169.44,474.44 203.32999999999998,508.33 169.44,508.33" fill="#0f172a"/><rect x="135.56" y="508.33" width="33.89" height="33.89" fill="#3b82f6"/><polygon points="135.56,508.33 169.45,508.33 169.45,542.22" fill="#3b82f6"/><rect x="169.44" y="508.33" width="33.89" height="33.89" fill="#0f172a"/><polygon points="169.44,508.33 203.32999999999998,508.33 169.44,542.22" fill="#3b82f6"/><rect x="203.33" y="474.44" width="67.78" height="67.78" fill="#0f172a"/><rect x="203.33" y="474.44" width="67.78" height="67.78" fill="#0f172a"/><rect x="271.11" y="474.44" width="67.78" height="67.78" fill="#3b82f6"/><rect x="271.11" y="474.44" width="67.78" height="67.78" fill="#3b82f6"/><rect x="338.88888888888886" y="474.4444444444444" width="67.77777777777777" height="67.77777777777777" fill="#ffffff"/><rect x="338.89" y="474.44" width="33.89" height="33.89" fill="#0f172a"/><polygon points="372.78,474.44 372.78,508.33 338.89,508.33" fill="#3b82f6"/><rect x="372.78" y="474.44" width="33.89" height="33.89" fill="#0f172a"/><polygon points="372.78,474.44 406.66999999999996,508.33 372.78,508.33" fill="#0f172a"/><rect x="338.89" y="508.33" width="33.89" height="33.89" fill="#3b82f6"/><polygon points="338.89,508.33 372.78,508.33 338.89,542.22" fill="#3b82f6"/><rect x="372.78" y="508.33" width="33.89" height="33.89" fill="#0f172a"/><polygon points="372.78,508.33 406.66999999999996,508.33 406.66999999999996,542.22" fill="#3b82f6"/><rect x="406.67" y="474.44" width="67.78" height="67.78" fill="#0f172a"/><path d="M 406.67 474.44 A 67.78 67.78 0 0 1 474.45000000000005 542.22 L 406.67 542.22" fill="#3b82f6"/><rect x="474.44" y="474.44" width="67.78" height="67.78" fill="#0f172a"/><rect x="474.44" y="474.44" width="67.78" height="67.78" fill="#0f172a"/><rect x="542.22" y="474.44" width="67.78" height="67.78" fill="#0f172a"/><polygon points="542.22,474.44 610,542.22 542.22,542.22" fill="#3b82f6"/><rect x="610" y="474.4444444444444" width="67.77777777777777" height="67.77777777777777" fill="#ffffff"/><rect x="610" y="474.44" width="33.89" height="33.89" fill="#0f172a"/><circle cx="626.945" cy="491.385" r="16.945" fill="#3b82f6"/><rect x="643.89" y="474.44" width="33.89" height="33.89" fill="#0f172a"/><rect x="643.89" y="474.44" width="33.89" height="33.89" fill="#3b82f6"/><rect x="610" y="508.33" width="33.89" height="33.89" fill="#3b82f6"/><circle cx="626.945" cy="525.275" r="16.945" fill="#0f172a"/><rect x="643.89" y="508.33" width="33.89" height="33.89" fill="#3b82f6"/><rect x="643.89" y="508.33" width="33.89" height="33.89" fill="#3b82f6"/><rect x="677.78" y="474.44" width="67.78" height="67.78" fill="#0f172a"/><path d="M 677.78 542.22 A 67.78 67.78 0 0 1  745.56 474.44 L 745.56 542.22" fill="#3b82f6"/><rect x="745.5555555555554" y="474.4444444444444" width="67.77777777777777" height="67.77777777777777" fill="#ffffff"/><rect x="745.56" y="474.44" width="33.89" height="33.89" fill="#0f172a"/><path d="M 745.56 508.33 A 33.89 33.89 0 0 0 779.4499999999999 474.44 L 745.56 474.44" fill="#3b82f6"/><rect x="779.44" y="474.44" width="33.89" height="33.89" fill="#3b82f6"/><path d="M 779.44 474.44 A 33.89 33.89 0 0 0 813.33 508.33 L 813.33 474.44" fill="#0f172a"/><rect x="745.56" y="508.33" width="33.89" height="33.89" fill="#3b82f6"/><path d="M 745.56 508.33 A 33.89 33.89 0 0 1 779.4499999999999 542.22 L 745.56 542.22" fill="#3b82f6"/><rect x="779.44" y="508.33" width="33.89" height="33.89" fill="#0f172a"/><path d="M 779.44 542.22 A 33.89 33.89 0 0 1  813.33 508.33 L 813.33 542.22" fill="#0f172a"/><rect x="813.3333333333333" y="474.4444444444444" width="67.77777777777777" height="67.77777777777777" fill="#ffffff"/><rect x="813.33" y="474.44" width="33.89" height="33.89" fill="#0f172a"/><path d="M 813.33 508.33 A 33.89 33.89 0 0 0 847.22 474.44 L 813.33 474.44" fill="#0f172a"/><rect x="847.22" y="474.44" width="33.89" height="33.89" fill="#0f172a"/><path d="M 847.22 474.44 A 33.89 33.89 0 0 0 881.11 508.33 L 881.11 474.44" fill="#0f172a"/><rect x="813.33" y="508.33" width="33.89" height="33.89" fill="#0f172a"/><path d="M 813.33 508.33 A 33.89 33.89 0 0 1 847.22 542.22 L 813.33 542.22" fill="#3b82f6"/><rect x="847.22" y="508.33" width="33.89" height="33.89" fill="#0f172a"/><path d="M 847.22 542.22 A 33.89 33.89 0 0 1  881.11 508.33 L 881.11 542.22" fill="#0f172a"/><rect x="881.1111111111111" y="474.4444444444444" width="67.77777777777777" height="67.77777777777777" fill="#ffffff"/><rect x="881.11" y="474.44" width="33.89" height="33.89" fill="#3b82f6"/><path d="M 881.11 474.44 A 33.89 33.89 0 0 1 915 508.33 L 881.11 508.33" fill="#0f172a"/><rect x="915" y="474.44" width="33.89" height="33.89" fill="#0f172a"/><path d="M 915 508.33 A 33.89 33.89 0 0 1  948.89 474.44 L 948.89 508.33" fill="#0f172a"/><rect x="881.11" y="508.33" width="33.89" height="33.89" fill="#3b82f6"/><path d="M 881.11 542.22 A 33.89 33.89 0 0 0 915 508.33 L 881.11 508.33" fill="#0f172a"/><rect x="915" y="508.33" width="33.89" height="33.89" fill="#0f172a"/><path d="M 915 508.33 A 33.89 33.89 0 0 0 948.89 542.22 L 948.89 508.33" fill="#3b82f6"/><rect x="948.8888888888888" y="474.4444444444444" width="67.77777777777777" height="67.77777777777777" fill="#ffffff"/><rect x="948.89" y="474.44" width="33.89" height="33.89" fill="#3b82f6"/><path d="M 948.89 508.33 A 33.89 33.89 0 0 1  982.78 474.44 L 982.78 508.33" fill="#3b82f6"/><rect x="982.78" y="474.44" width="33.89" height="33.89" fill="#3b82f6"/><path d="M 982.78 474.44 A 33.89 33.89 0 0 1 1016.67 508.33 L 982.78 508.33" fill="#3b82f6"/><rect x="948.89" y="508.33" width="33.89" height="33.89" fill="#0f172a"/><path d="M 948.89 508.33 A 33.89 33.89 0 0 0 982.78 542.22 L 982.78 508.33" fill="#3b82f6"/><rect x="982.78" y="508.33" width="33.89" height="33.89" fill="#0f172a"/><path d="M 982.78 542.22 A 33.89 33.89 0 0 0 1016.67 508.33 L 982.78 508.33" fill="#3b82f6"/><rect x="1016.67" y="474.44" width="67.78" height="67.78" fill="#0f172a"/><polygon points="1084.45,474.44 1084.45,542.22 1016.67,542.22" fill="#0f172a"/><rect x="0" y="542.22" width="67.78" height="67.78" fill="#3b82f6"/><polygon points="67.78,542.22 67.78,610 0,610" fill="#0f172a"/><rect x="67.78" y="542.22" width="67.78" height="67.78" fill="#3b82f6"/><rect x="67.78" y="542.22" width="67.78" height="67.78" fill="#0f172a"/><rect x="135.56" y="542.22" width="67.78" height="67.78" fill="#3b82f6"/><path d="M 135.56 542.22 A 67.78 67.78 0 0 1  203.34 610 L 135.56 542.22 A 67.78 67.78 0 0 0 203.34 610" fill="#0f172a"/><rect x="203.33" y="542.22" width="67.78" height="67.78" fill="#3b82f6"/><path d="M 203.33 610 A 67.78 67.78 0 0 1  271.11 542.22 L 271.11 610" fill="#0f172a"/><rect x="271.1111111111111" y="542.2222222222222" width="67.77777777777777" height="67.77777777777777" fill="#ffffff"/><rect x="271.11" y="542.22" width="33.89" height="33.89" fill="#3b82f6"/><path d="M 271.11 576.11 A 33.89 33.89 0 0 1  305 542.22 L 305 576.11" fill="#3b82f6"/><rect x="305" y="542.22" width="33.89" height="33.89" fill="#3b82f6"/><path d="M 305 542.22 A 33.89 33.89 0 0 1 338.89 576.11 L 305 576.11" fill="#3b82f6"/><rect x="271.11" y="576.11" width="33.89" height="33.89" fill="#3b82f6"/><path d="M 271.11 576.11 A 33.89 33.89 0 0 0 305 610 L 305 576.11" fill="#3b82f6"/><rect x="305" y="576.11" width="33.89" height="33.89" fill="#0f172a"/><path d="M 305 610 A 33.89 33.89 0 0 0 338.89 576.11 L 305 576.11" fill="#3b82f6"/><rect x="338.88888888888886" y="542.2222222222222" width="67.77777777777777" height="67.77777777777777" fill="#ffffff"/><rect x="338.89" y="542.22" width="33.89" height="33.89" fill="#0f172a"/><circle cx="355.835" cy="559.1650000000001" r="16.945" fill="#0f172a"/><rect x="372.78" y="542.22" width="33.89" height="33.89" fill="#3b82f6"/><rect x="372.78" y="542.22" width="33.89" height="33.89" fill="#3b82f6"/><rect x="338.89" y="576.11" width="33.89" height="33.89" fill="#3b82f6"/><circle cx="355.835" cy="593.0550000000001" r="16.945" fill="#0f172a"/><rect x="372.78" y="576.11" width="33.89" height="33.89" fill="#3b82f6"/><rect x="372.78" y="576.11" width="33.89" height="33.89" fill="#3b82f6"/><rect x="406.66666666666663" y="542.2222222222222" width="67.77777777777777" height="67.77777777777777" fill="#ffffff"/><rect x="406.67" y="542.22" width="33.89" height="33.89" fill="#0f172a"/><polygon points="440.56,542.22 440.56,576.11 406.67,576.11" fill="#3b82f6"/><rect x="440.56" y="542.22" width="33.89" height="33.89" fill="#0f172a"/><polygon points="440.56,542.22 474.45,542.22 440.56,576.11" fill="#3b82f6"/><rect x="406.67" y="576.11" width="33.89" height="33.89" fill="#3b82f6"/><polygon points="406.67,576.11 440.56,576.11 440.56,610" fill="#0f172a"/><rect x="440.56" y="576.11" width="33.89" height="33.89" fill="#3b82f6"/><polygon points="440.56,576.11 474.45,610 440.56,610" fill="#0f172a"/><rect x="474.44" y="542.22" width="67.78" height="67.78" fill="#0f172a"/><path d="M 474.44 610 A 67.78 67.78 0 0 1  542.22 542.22 L 542.22 610" fill="#3b82f6"/><rect x="542.22" y="542.22" width="67.78" height="67.78" fill="#0f172a"/><path d="M 542.22 610 A 67.78 67.78 0 0 0 610 542.22 L 542.22 542.22" fill="#3b82f6"/><rect x="610" y="542.22" width="67.78" height="67.78" fill="#3b82f6"/><rect x="610" y="542.22" width="67.78" height="67.78" fill="#3b82f6"/><rect x="677.78" y="542.22" width="67.78" height="67.78" fill="#0f172a"/><rect x="677.78" y="542.22" width="67.78" height="67.78" fill="#3b82f6"/><rect x="745.5555555555554" y="542.2222222222222" width="67.77777777777777" height="67.77777777777777" fill="#ffffff"/><rect x="745.56" y="542.22" width="33.89" height="33.89" fill="#3b82f6"/><path d="M 745.56 542.22 A 33.89 33.89 0 0 1 779.4499999999999 576.11 L 745.56 576.11" fill="#3b82f6"/><rect x="779.44" y="542.22" width="33.89" height="33.89" fill="#3b82f6"/><path d="M 779.44 576.11 A 33.89 33.89 0 0 1  813.33 542.22 L 813.33 576.11" fill="#0f172a"/><rect x="745.56" y="576.11" width="33.89" height="33.89" fill="#3b82f6"/><path d="M 745.56 610 A 33.89 33.89 0 0 0 779.4499999999999 576.11 L 745.56 576.11" fill="#3b82f6"/><rect x="779.44" y="576.11" width="33.89" height="33.89" fill="#3b82f6"/><path d="M 779.44 576.11 A 33.89 33.89 0 0 0 813.33 610 L 813.33 576.11" fill="#3b82f6"/><rect x="813.3333333333333" y="542.2222222222222" width="67.77777777777777" height="67.77777777777777" fill="#ffffff"/><rect x="813.33" y="542.22" width="33.89" height="33.89" fill="#0f172a"/><polygon points="847.22,542.22 847.22,576.11 813.33,576.11" fill="#0f172a"/><rect x="847.22" y="542.22" width="33.89" height="33.89" fill="#0f172a"/><polygon points="847.22,542.22 881.11,576.11 847.22,576.11" fill="#0f172a"/><rect x="813.33" y="576.11" width="33.89" height="33.89" fill="#3b82f6"/><polygon points="813.33,576.11 847.22,576.11 813.33,610" fill="#3b82f6"/><rect x="847.22" y="576.11" width="33.89" height="33.89" fill="#0f172a"/><polygon points="847.22,576.11 881.11,576.11 881.11,610" fill="#0f172a"/><rect x="881.1111111111111" y="542.2222222222222" width="67.77777777777777" height="67.77777777777777" fill="#ffffff"/><rect x="881.11" y="542.22" width="33.89" height="33.89" fill="#0f172a"/><path d="M 881.11 576.11 A 33.89 33.89 0 0 0 915 542.22 L 881.11 542.22" fill="#0f172a"/><rect x="915" y="542.22" width="33.89" height="33.89" fill="#3b82f6"/><path d="M 915 542.22 A 33.89 33.89 0 0 0 948.89 576.11 L 948.89 542.22" fill="#0f172a"/><rect x="881.11" y="576.11" width="33.89" height="33.89" fill="#0f172a"/><path d="M 881.11 576.11 A 33.89 33.89 0 0 1 915 610 L 881.11 610" fill="#0f172a"/><rect x="915" y="576.11" width="33.89" height="33.89" fill="#3b82f6"/><path d="M 915 610 A 33.89 33.89 0 0 1  948.89 576.11 L 948.89 610" fill="#3b82f6"/><rect x="948.89" y="542.22" width="67.78" height="67.78" fill="#0f172a"/><polygon points="1016.67,542.22 1016.67,610 948.89,610" fill="#0f172a"/><rect x="1016.6666666666665" y="542.2222222222222" width="67.77777777777777" height="67.77777777777777" fill="#ffffff"/><rect x="1016.67" y="542.22" width="33.89" height="33.89" fill="#3b82f6"/><polygon points="1050.56,542.22 1050.56,576.11 1016.67,576.11" fill="#3b82f6"/><rect x="1050.56" y="542.22" width="33.89" height="33.89" fill="#0f172a"/><polygon points="1050.56,542.22 1084.45,576.11 1050.56,576.11" fill="#0f172a"/><rect x="1016.67" y="576.11" width="33.89" height="33.89" fill="#3b82f6"/><polygon points="1016.67,576.11 1050.56,576.11 1016.67,610" fill="#3b82f6"/><rect x="1050.56" y="576.11" width="33.89" height="33.89" fill="#3b82f6"/><polygon points="1050.56,576.11 1084.45,576.11 1084.45,610" fill="#3b82f6"/></g></svg>